<svg version="1.1" id="Layer_1" xmlns="http://www.w3.org/2000/svg" xmlns:xlink="http://www.w3.org/1999/xlink" x="0px" y="0px"
	 width="100%" viewBox="0 0 73 63" enable-background="new 0 0 73 63" xml:space="preserve">
<path fill="#1C3B63" opacity="1.000000" stroke="none" 
	d="
M46.000000,64.000000 
	C30.666666,64.000000 15.833333,64.000000 1.000000,64.000000 
	C1.000000,43.000000 1.000000,22.000000 1.000000,1.000000 
	C25.333334,1.000000 49.666668,1.000000 74.000000,1.000000 
	C74.000000,22.000000 74.000000,43.000000 74.000000,64.000000 
	C64.833336,64.000000 55.666668,64.000000 46.000000,64.000000 
M26.663012,58.931911 
	C26.880444,58.598759 27.097876,58.265606 27.315308,57.932449 
	C26.865496,57.961914 26.415684,57.991375 25.366039,58.279732 
	C25.278679,59.227707 25.191319,60.175682 25.103960,61.123657 
	C25.358183,61.153580 25.612406,61.183502 25.866629,61.213428 
	C25.990116,60.489017 26.113602,59.764610 26.663012,58.931911 
M35.396927,5.406449 
	C35.396927,5.406449 35.416904,5.510176 34.627098,5.305000 
	C28.388681,6.364678 32.094440,10.208452 31.616634,13.547619 
	C33.221172,12.328784 34.091797,11.667443 35.510479,11.290037 
	C37.341785,10.770377 39.173092,10.250717 42.489052,9.309764 
	C40.028954,7.330379 38.510342,6.108510 36.605011,4.623619 
	C36.184631,4.915011 35.764256,5.206404 35.396927,5.406449 
M50.024712,31.897038 
	C48.463848,31.991791 46.902988,32.086544 46.241402,32.126705 
	C48.170280,34.043072 50.412258,36.049011 52.380531,38.294830 
	C54.007664,40.151405 55.107498,42.494308 56.834656,44.229980 
	C57.877663,45.278133 59.672245,45.578396 61.129124,46.214703 
	C59.894806,43.198128 58.099098,41.239834 56.586037,39.083241 
	C54.985256,36.801620 53.653496,34.331261 52.930519,31.732513 
	C56.585884,29.652966 58.236217,26.432774 56.775074,22.539730 
	C56.110260,20.768402 53.800018,19.614634 52.236137,18.180742 
	C51.918110,18.533188 51.600082,18.885635 51.282055,19.238083 
	C55.314205,24.458546 55.185909,28.013882 50.024712,31.897038 
M16.959082,36.035233 
	C16.977680,30.112751 16.996281,24.190269 17.015448,18.087433 
	C16.418877,18.087433 14.335742,18.087433 12.595874,18.087433 
	C13.016845,19.985430 13.677527,21.750177 13.753188,23.539658 
	C13.956215,28.341593 13.730118,33.164948 14.020646,37.958813 
	C14.232665,41.457245 15.529360,44.448105 19.942787,45.347427 
	C18.794926,42.055317 17.900644,39.490482 16.959082,36.035233 
M37.233482,21.211107 
	C39.062374,15.288925 34.572502,18.925089 33.468422,18.211597 
	C33.468422,27.502405 33.468422,36.677830 33.468422,45.864166 
	C34.919991,45.864166 36.689655,45.864166 37.132000,45.864166 
	C37.132000,37.781662 37.132000,29.937235 37.233482,21.211107 
M31.966375,54.482906 
	C32.193577,53.675289 32.420776,52.867672 32.647980,52.060055 
	C31.133041,52.482517 29.618105,52.904984 28.103167,53.327450 
	C28.248159,53.699879 28.393152,54.072311 28.538147,54.444744 
	C29.489826,54.383400 30.441507,54.322060 31.966375,54.482906 
M35.512852,14.387711 
	C35.324165,14.697243 35.135475,15.006775 34.946785,15.316307 
	C35.218033,15.392365 35.489277,15.468425 35.760529,15.544485 
	C35.810387,15.192988 35.860241,14.841492 35.512852,14.387711 
M43.158867,59.594738 
	C43.582447,59.616196 44.006027,59.637657 44.429607,59.659115 
	C44.237839,59.245365 44.046070,58.831612 43.854309,58.417866 
	C43.582981,58.650368 43.311653,58.882870 43.158867,59.594738 
z"/>
<path fill="#DFE3E9" opacity="1.000000" stroke="none" 
	d="
M16.982723,36.480438 
	C17.900644,39.490482 18.794926,42.055317 19.942787,45.347427 
	C15.529360,44.448105 14.232665,41.457245 14.020646,37.958813 
	C13.730118,33.164948 13.956215,28.341593 13.753188,23.539658 
	C13.677527,21.750177 13.016845,19.985430 12.595874,18.087433 
	C14.335742,18.087433 16.418877,18.087433 17.015448,18.087433 
	C16.996281,24.190269 16.977680,30.112751 16.982723,36.480438 
z"/>
<path fill="#BFC80A" opacity="1.000000" stroke="none" 
	d="
M37.182739,21.651958 
	C37.132000,29.937235 37.132000,37.781662 37.132000,45.864166 
	C36.689655,45.864166 34.919991,45.864166 33.468422,45.864166 
	C33.468422,36.677830 33.468422,27.502405 33.468422,18.211597 
	C34.572502,18.925089 39.062374,15.288925 37.182739,21.651958 
z"/>
<path fill="#E4E8ED" opacity="1.000000" stroke="none" 
	d="
M52.204224,31.943342 
	C53.653496,34.331261 54.985256,36.801620 56.586037,39.083241 
	C58.099098,41.239834 59.894806,43.198128 61.129124,46.214703 
	C59.672245,45.578396 57.877663,45.278133 56.834656,44.229980 
	C55.107498,42.494308 54.007664,40.151405 52.380531,38.294830 
	C50.412258,36.049011 48.170280,34.043072 46.241402,32.126705 
	C46.902988,32.086544 48.463848,31.991791 50.653458,31.945171 
	C51.282200,31.993307 51.745075,32.002693 51.745075,32.002693 
	C51.745075,32.002693 52.204224,31.943342 52.204224,31.943342 
z"/>
<path fill="#D9DEE5" opacity="1.000000" stroke="none" 
	d="
M52.567371,31.837929 
	C52.204224,31.943342 51.745075,32.002693 51.745075,32.002693 
	C51.745075,32.002693 51.282200,31.993307 51.053219,31.959156 
	C55.185909,28.013882 55.314205,24.458546 51.282055,19.238083 
	C51.600082,18.885635 51.918110,18.533188 52.236137,18.180742 
	C53.800018,19.614634 56.110260,20.768402 56.775074,22.539730 
	C58.236217,26.432774 56.585884,29.652966 52.567371,31.837929 
z"/>
<path fill="#A6B31C" opacity="1.000000" stroke="none" 
	d="
M36.991730,4.886640 
	C38.510342,6.108510 40.028954,7.330379 42.489052,9.309764 
	C39.173092,10.250717 37.341785,10.770377 35.190903,10.819220 
	C35.053188,8.735660 35.235046,7.122918 35.416901,5.510176 
	C35.416904,5.510176 35.396927,5.406449 35.662632,5.410046 
	C36.282803,5.237975 36.637264,5.062308 36.991730,4.886640 
z"/>
<path fill="#2C495E" opacity="1.000000" stroke="none" 
	d="
M35.021999,5.407588 
	C35.235046,7.122918 35.053188,8.735660 34.916878,10.677252 
	C34.091797,11.667443 33.221172,12.328784 31.616634,13.547619 
	C32.094440,10.208452 28.388681,6.364678 35.021999,5.407588 
z"/>
<path fill="#7A8C30" opacity="1.000000" stroke="none" 
	d="
M31.679781,54.371811 
	C30.441507,54.322060 29.489826,54.383400 28.538147,54.444744 
	C28.393152,54.072311 28.248159,53.699879 28.103167,53.327450 
	C29.618105,52.904984 31.133041,52.482517 32.647980,52.060055 
	C32.420776,52.867672 32.193577,53.675289 31.679781,54.371811 
z"/>
<path fill="#2C495E" opacity="1.000000" stroke="none" 
	d="
M35.711475,14.438852 
	C35.860241,14.841492 35.810387,15.192988 35.760529,15.544485 
	C35.489277,15.468425 35.218033,15.392365 34.946785,15.316307 
	C35.135475,15.006775 35.324165,14.697243 35.711475,14.438852 
z"/>
<path fill="#A3AF1C" opacity="1.000000" stroke="none" 
	d="
M43.099594,59.355053 
	C43.311653,58.882870 43.582981,58.650368 43.854309,58.417862 
	C44.046070,58.831612 44.237839,59.245365 44.429607,59.659115 
	C44.006027,59.637657 43.582447,59.616196 43.099594,59.355053 
z"/>
<path fill="#A2AE1C" opacity="1.000000" stroke="none" 
	d="
M26.237089,59.040199 
	C26.113602,59.764610 25.990116,60.489017 25.866629,61.213428 
	C25.612406,61.183502 25.358183,61.153580 25.103960,61.123657 
	C25.191319,60.175682 25.278679,59.227707 25.705669,58.412598 
	C26.109230,58.710377 26.173161,58.875286 26.237089,59.040199 
z"/>
<path fill="#314E56" opacity="1.000000" stroke="none" 
	d="
M26.450050,58.986053 
	C26.173161,58.875286 26.109230,58.710377 26.005587,58.283150 
	C26.415684,57.991375 26.865496,57.961914 27.315308,57.932449 
	C27.097876,58.265606 26.880444,58.598759 26.450050,58.986053 
z"/>
<path fill="#2C495E" opacity="1.000000" stroke="none" 
	d="
M36.798370,4.755130 
	C36.637264,5.062308 36.282803,5.237975 35.636108,5.455719 
	C35.764256,5.206404 36.184631,4.915011 36.798370,4.755130 
z"/>
</svg>